<?xml version="1.0" encoding="UTF-8"?>
<svg id="Layer_1" data-name="Layer 1" xmlns="http://www.w3.org/2000/svg" xmlns:xlink="http://www.w3.org/1999/xlink" viewBox="0 0 800 300">
  <defs>
    <style>
      .cls-1 {
        fill: url(#linear-gradient);
      }

      .cls-1, .cls-2, .cls-3, .cls-4, .cls-5, .cls-6, .cls-7, .cls-8 {
        stroke-width: 0px;
      }

      .cls-2 {
        fill: #000;
      }

      .cls-3 {
        fill: url(#linear-gradient-6);
      }

      .cls-4 {
        fill: url(#linear-gradient-5);
      }

      .cls-5 {
        fill: url(#linear-gradient-2);
      }

      .cls-6 {
        fill: url(#linear-gradient-3);
      }

      .cls-7 {
        fill: #fff;
      }

      .cls-8 {
        fill: url(#linear-gradient-4);
      }
    </style>
    <linearGradient id="linear-gradient" x1="99.69" y1="104.49" x2="99.7" y2="104.49" gradientUnits="userSpaceOnUse">
      <stop offset="0" stop-color="#fdd100"/>
      <stop offset=".19" stop-color="#fcba13"/>
      <stop offset=".54" stop-color="#fc9632"/>
      <stop offset=".82" stop-color="#fc8046"/>
      <stop offset="1" stop-color="#fc794d"/>
    </linearGradient>
    <linearGradient id="linear-gradient-2" x1="156.33" y1="190.62" x2="112.05" y2="190.62" gradientUnits="userSpaceOnUse">
      <stop offset="0" stop-color="#e71681"/>
      <stop offset="1" stop-color="#fbb719"/>
    </linearGradient>
    <linearGradient id="linear-gradient-3" x1="109.21" y1="188.78" x2="109.21" y2="117.25" gradientUnits="userSpaceOnUse">
      <stop offset="0" stop-color="#e71681"/>
      <stop offset="1" stop-color="#5845eb"/>
    </linearGradient>
    <linearGradient id="linear-gradient-4" x1="104.48" y1="116.29" x2="174.55" y2="116.29" xlink:href="#linear-gradient-2"/>
    <linearGradient id="linear-gradient-5" x1="159.09" y1="117.48" x2="159.09" y2="192.25" xlink:href="#linear-gradient-3"/>
    <linearGradient id="linear-gradient-6" x1="140.26" y1="104.27" x2="140.26" y2="104.25" xlink:href="#linear-gradient"/>
  </defs>
  <g>
    <path class="cls-2" d="M223.72,181.38c-4.16-1.7-7.48-4.22-9.96-7.56-2.49-3.34-3.8-7.36-3.93-12.06h18.59c.27,2.66,1.19,4.68,2.76,6.08,1.57,1.4,3.61,2.09,6.13,2.09s4.63-.6,6.13-1.79c1.5-1.19,2.25-2.84,2.25-4.96,0-1.77-.6-3.23-1.79-4.39-1.19-1.16-2.66-2.11-4.39-2.86-1.74-.75-4.21-1.6-7.41-2.55-4.63-1.43-8.41-2.86-11.34-4.29-2.93-1.43-5.45-3.54-7.56-6.33-2.11-2.79-3.17-6.44-3.17-10.93,0-6.67,2.42-11.9,7.25-15.68,4.84-3.78,11.14-5.67,18.9-5.67s14.27,1.89,19.1,5.67c4.84,3.78,7.42,9.04,7.76,15.78h-18.9c-.14-2.31-.99-4.14-2.55-5.47-1.57-1.33-3.58-1.99-6.03-1.99-2.11,0-3.82.56-5.11,1.69-1.29,1.12-1.94,2.74-1.94,4.85,0,2.32,1.09,4.12,3.27,5.42,2.18,1.29,5.58,2.69,10.22,4.19,4.63,1.57,8.39,3.06,11.29,4.5,2.89,1.43,5.4,3.51,7.51,6.23,2.11,2.72,3.17,6.23,3.17,10.52s-1.04,7.8-3.12,11.14c-2.08,3.34-5.09,5.99-9.04,7.97-3.95,1.98-8.62,2.96-14,2.96s-9.95-.85-14.1-2.55Z"/>
    <path class="cls-2" d="M299.22,127.85c3-1.63,6.5-2.45,10.52-2.45,4.7,0,8.96,1.19,12.77,3.58,3.81,2.39,6.83,5.79,9.04,10.22,2.21,4.43,3.32,9.57,3.32,15.43s-1.11,11.02-3.32,15.48c-2.21,4.46-5.23,7.9-9.04,10.32-3.81,2.42-8.07,3.63-12.77,3.63-3.95,0-7.44-.82-10.47-2.45-3.03-1.63-5.4-3.75-7.1-6.33v35.14h-17.47v-84.18h17.47v8.07c1.7-2.66,4.05-4.8,7.05-6.44ZM313.47,144.35c-2.42-2.49-5.4-3.73-8.94-3.73s-6.42,1.26-8.84,3.78c-2.42,2.52-3.63,5.96-3.63,10.32s1.21,7.8,3.63,10.32c2.42,2.52,5.36,3.78,8.84,3.78s6.44-1.28,8.89-3.83c2.45-2.55,3.68-6.01,3.68-10.37s-1.21-7.78-3.63-10.27Z"/>
    <path class="cls-2" d="M354.95,180.46c-4.46-2.38-7.97-5.79-10.52-10.22-2.55-4.43-3.83-9.6-3.83-15.53s1.29-11.02,3.88-15.48c2.59-4.46,6.13-7.88,10.62-10.27,4.5-2.38,9.54-3.58,15.12-3.58s10.63,1.19,15.12,3.58c4.5,2.39,8.04,5.81,10.63,10.27,2.59,4.46,3.88,9.62,3.88,15.48s-1.31,11.02-3.93,15.48c-2.62,4.46-6.2,7.88-10.73,10.27-4.53,2.38-9.59,3.58-15.17,3.58s-10.61-1.19-15.07-3.58ZM378.55,165.24c2.35-2.45,3.52-5.96,3.52-10.52s-1.14-8.07-3.42-10.52c-2.28-2.45-5.09-3.68-8.43-3.68s-6.23,1.21-8.48,3.63c-2.25,2.42-3.37,5.94-3.37,10.57s1.11,8.07,3.32,10.52c2.21,2.45,4.99,3.68,8.33,3.68s6.18-1.23,8.53-3.68Z"/>
    <path class="cls-2" d="M440.92,168.41v14.81h-8.89c-6.33,0-11.27-1.55-14.81-4.65-3.54-3.1-5.31-8.16-5.31-15.17v-22.68h-6.95v-14.51h6.95v-13.89h17.47v13.89h11.44v14.51h-11.44v22.88c0,1.7.41,2.93,1.23,3.68.82.75,2.18,1.12,4.09,1.12h6.23Z"/>
    <path class="cls-2" d="M461.45,107.62v75.6h-9.3v-75.6h9.3Z"/>
    <path class="cls-2" d="M477.59,116.3c-1.23-1.23-1.84-2.72-1.84-4.5s.61-3.27,1.84-4.5c1.23-1.23,2.72-1.84,4.5-1.84s3.15.61,4.34,1.84c1.19,1.23,1.79,2.73,1.79,4.5s-.6,3.27-1.79,4.5c-1.19,1.23-2.64,1.84-4.34,1.84s-3.27-.61-4.5-1.84ZM486.58,127.23v55.99h-9.3v-55.99h9.3Z"/>
    <path class="cls-2" d="M538.23,129.48c3.64,2.11,6.35,4.77,8.12,7.97v-10.22h9.4v57.21c0,5.11-1.09,9.66-3.27,13.64-2.18,3.98-5.3,7.1-9.35,9.35-4.05,2.25-8.77,3.37-14.15,3.37-7.36,0-13.49-1.74-18.39-5.21s-7.8-8.21-8.68-14.2h9.19c1.02,3.41,3.13,6.15,6.33,8.22,3.2,2.08,7.05,3.12,11.54,3.12,5.11,0,9.28-1.6,12.52-4.8,3.23-3.2,4.85-7.7,4.85-13.49v-11.75c-1.84,3.27-4.56,5.99-8.17,8.17-3.61,2.18-7.83,3.27-12.67,3.27s-9.49-1.23-13.54-3.68c-4.05-2.45-7.24-5.89-9.55-10.32-2.32-4.43-3.47-9.47-3.47-15.12s1.16-10.74,3.47-15.07c2.31-4.32,5.5-7.68,9.55-10.06,4.05-2.38,8.56-3.58,13.54-3.58s9.08,1.06,12.72,3.17ZM543.8,144.09c-1.7-3.13-4-5.53-6.9-7.2-2.9-1.67-6.08-2.5-9.55-2.5s-6.64.82-9.5,2.45c-2.86,1.63-5.14,4.02-6.84,7.15-1.7,3.13-2.55,6.81-2.55,11.03s.85,8.02,2.55,11.19c1.7,3.17,3.98,5.59,6.84,7.25,2.86,1.67,6.03,2.5,9.5,2.5s6.66-.83,9.55-2.5c2.89-1.67,5.19-4.09,6.9-7.25,1.7-3.17,2.55-6.86,2.55-11.08s-.85-7.9-2.55-11.03Z"/>
    <path class="cls-2" d="M610.71,128.92c3.41,1.81,6.08,4.51,8.02,8.12,1.94,3.61,2.91,8,2.91,13.18v33h-9.19v-31.67c0-5.58-1.4-9.86-4.19-12.82-2.79-2.96-6.61-4.44-11.44-4.44s-8.8,1.53-11.7,4.6c-2.9,3.06-4.34,7.53-4.34,13.38v30.96h-9.3v-75.6h9.3v27.58c1.84-2.86,4.38-5.07,7.61-6.64,3.23-1.57,6.86-2.35,10.88-2.35,4.22,0,8.04.9,11.44,2.71Z"/>
    <path class="cls-2" d="M648.21,134.9v33c0,2.73.58,4.65,1.74,5.77,1.16,1.12,3.17,1.69,6.03,1.69h6.85v7.87h-8.38c-5.18,0-9.06-1.19-11.65-3.58-2.59-2.38-3.88-6.3-3.88-11.75v-33h-7.25v-7.66h7.25v-14.1h9.3v14.1h14.61v7.66h-14.61Z"/>
  </g>
  <rect class="cls-7" x="109.21" y="104.25" width="58.41" height="88.41"/>
  <g>
    <polygon class="cls-1" points="99.7 104.49 99.69 104.5 99.69 104.49 99.7 104.49"/>
    <path class="cls-5" d="M152.41,190.62c0,.91-.06,1.8-.17,2.68-.02.18-.04.35-.07.53-.02.17-.06.34-.09.52-.03.17-.06.34-.1.51-.19.91-.44,1.8-.73,2.67-.06.17-.12.32-.18.49-.07.18-.13.36-.21.53-.07.18-.15.35-.22.52-.08.17-.16.34-.24.51,0,0,0,0,0,.01-.21.44-.43.88-.67,1.3-.59,1.07-1.29,2.08-2.07,3.02-.61.75-1.28,1.47-2,2.13-.53.5-1.1.97-1.68,1.4-.2.14-.39.29-.59.42-.2.14-.4.28-.61.41-.41.26-.83.51-1.26.75-.42.24-.85.45-1.29.66-.47.21-.95.42-1.44.6-.2.08-.41.15-.61.22-.02,0-.04.01-.05.02-.23.08-.47.15-.7.22-.24.07-.48.14-.72.2-.38.1-.77.19-1.16.27-.15.03-.29.06-.43.08-.77.14-1.55.23-2.34.29-.17,0-.32.02-.49.02-.29.01-.59.02-.89.02h-5.1c-4.17,0-8.14-1.29-11.36-3.47-3.24-2.19-5.8-5.26-7.35-8.92-1.03-2.44-1.61-5.14-1.59-7.91v-21.74c0,11.61,9.4,21.02,21.01,21.02h25.41Z"/>
    <path class="cls-6" d="M126.99,165.21v25.41c-11.61,0-21.01-9.41-21.01-21.02v-3.61c-4.54-4.42-8.22-9.74-10.74-15.69h0c-2.45-5.8-3.81-12.18-3.81-18.8,0-9.95,3.05-19.3,8.26-27.01.22-.32.44-.66.69-.97,2.27-3.19,4.91-6.1,7.88-8.65-2.65,5.97-4.12,12.58-4.12,19.52,0,.86.02,1.71.07,2.56.02.34.04.69.07,1.03,0,.11.01.21.02.32.1,1.23.25,2.46.44,3.66.2,1.23.44,2.45.72,3.65.09.36.17.71.27,1.06.11.44.23.88.36,1.32.11.37.22.74.34,1.1.16.51.33,1.01.51,1.51.09.26.19.52.29.78.02.06.04.12.07.18.13.35.26.69.4,1.03.15.37.31.75.47,1.12.11.25.22.49.33.74.23.51.47,1.01.72,1.51.18.34.35.68.53,1.02.19.36.39.71.58,1.06.18.33.38.67.58.99.01.04.04.07.06.1.15.26.31.51.47.77.88,1.42,1.84,2.79,2.87,4.11.24.31.48.61.72.91.02.02.04.05.07.07.24.29.48.58.72.86.26.31.52.6.79.89.21.24.44.48.66.71.12.13.25.26.37.39.24.25.48.5.73.74.25.25.5.49.75.73.54.63,1.12,1.23,1.72,1.81.06.06.13.13.21.2,1.95,1.84,3.44,4.04,4.44,6.4,1,2.37,1.51,4.9,1.51,7.48Z"/>
    <path class="cls-8" d="M187.96,131.5c0,3.59-.4,7.11-1.16,10.5-4.79-21.61-24.07-37.75-47.1-37.75-.48,0-.96.02-1.44.04-3.25.17-6.33.89-9.14,2.09h-.02c-4.9,2.08-9.05,5.53-11.99,9.89h-.01c-2.62,3.87-4.27,8.48-4.58,13.45-.04.59-.06,1.18-.06,1.78,0,3.75.77,7.34,2.14,10.6,1.12,2.65,2.65,5.09,4.52,7.23-.25-.24-.5-.48-.75-.73-.25-.24-.49-.49-.73-.74-.12-.12-.25-.25-.37-.39-.22-.23-.44-.47-.66-.71-.27-.29-.53-.59-.79-.89-.25-.28-.48-.57-.72-.86-.02-.02-.04-.05-.07-.07-.25-.3-.48-.61-.72-.91-1.03-1.32-1.99-2.69-2.87-4.11-.16-.26-.32-.51-.47-.77-.02-.04-.05-.07-.06-.1-.2-.32-.39-.66-.58-.99-.2-.35-.39-.7-.58-1.06-.18-.34-.35-.67-.53-1.02-.25-.5-.49-1-.72-1.51-.11-.25-.22-.49-.33-.74-.16-.37-.32-.74-.47-1.12-.14-.34-.28-.68-.4-1.03-.03-.06-.05-.12-.07-.18-.1-.26-.2-.51-.29-.78-.18-.5-.36-1.01-.51-1.51-.12-.37-.23-.74-.34-1.1-.13-.44-.25-.88-.36-1.32-.1-.35-.18-.7-.27-1.06-.29-1.2-.53-2.42-.72-3.65-.13-.78-.23-1.57-.32-2.37-.04-.43-.09-.86-.12-1.29,0-.1-.02-.21-.02-.32-.03-.34-.05-.69-.07-1.03-.04-.85-.07-1.7-.07-2.56,0-6.95,1.47-13.56,4.12-19.52,3.75-3.23,8-5.88,12.64-7.84,1.96-.83,4-1.53,6.09-2.1,4.07-1.12,8.33-1.7,12.7-1.7,4.97,0,9.8.77,14.33,2.18,4.54,1.4,8.81,3.47,12.65,6.07h.01c7.62,5.16,13.69,12.42,17.38,21.01l.09.2c2.46,5.8,3.79,12.18,3.79,18.8Z"/>
    <path class="cls-4" d="M186.8,142c-.69,3.13-1.69,6.15-2.95,9-1.16,2.63-2.54,5.14-4.13,7.48v.02c-1.85,2.7-3.96,5.2-6.29,7.49v25.34c0,4.17-1.29,8.13-3.47,11.36-2.19,3.24-5.27,5.8-8.92,7.35-2.44,1.03-5.13,1.6-7.91,1.6h-21.73c.3,0,.59,0,.89-.02.17,0,.32-.02.49-.02.79-.06,1.57-.15,2.34-.29.14-.02.29-.05.43-.08.39-.08.78-.17,1.16-.27.25-.06.48-.13.72-.2.23-.07.47-.14.7-.22.01,0,.03-.01.05-.02.2-.07.41-.14.61-.22.49-.18.97-.39,1.44-.6.44-.21.87-.43,1.29-.66.43-.24.85-.49,1.26-.75.2-.13.4-.27.61-.41.2-.13.4-.28.59-.42.58-.44,1.15-.91,1.68-1.4.72-.66,1.39-1.37,2-2.13.77-.94,1.46-1.95,2.07-3.02.24-.43.46-.86.67-1.3.08-.17.17-.35.24-.52.07-.17.15-.34.22-.52.07-.17.14-.35.21-.53.06-.17.12-.32.18-.49.29-.87.54-1.76.73-2.67.04-.17.07-.34.1-.51.03-.18.06-.35.09-.52.03-.18.06-.35.07-.53.12-.88.17-1.77.17-2.68v-25.41c0-.86.05-1.72.17-2.56.58-4.3,2.6-8.31,5.82-11.35.06-.06.12-.1.17-.17,1.4-1.34,2.64-2.81,3.73-4.42,2.94-4.35,4.65-9.59,4.65-15.22,0-.6-.02-1.19-.06-1.78-.19-3.12-.91-6.1-2.07-8.84-2.06-4.89-5.53-9.05-9.88-11.98h-.01c-4.02-2.73-8.87-4.42-14.08-4.63,22.53.52,41.25,16.47,45.97,37.72Z"/>
    <path class="cls-3" d="M139.7,104.25c.38,0,.76,0,1.13.02-.38,0-.75-.02-1.13-.02Z"/>
  </g>
</svg>