<?xml version="1.0" encoding="UTF-8"?>
<svg id="Layer_1" data-name="Layer 1" xmlns="http://www.w3.org/2000/svg" viewBox="0 0 800 300">
  <defs>
    <style>
      .cls-1 {
        fill: #575441;
        opacity: .14;
      }

      .cls-1, .cls-2, .cls-3 {
        stroke-width: 0px;
      }

      .cls-2 {
        fill: #99459a;
      }

      .cls-3 {
        fill: #fff;
      }
    </style>
  </defs>
  <path class="cls-1" d="M448.31,70.21l-60.72,173.85s.75-26.07-132.18-25.29c0,0-137.14-4.18-145.03,25.29L413.33,43.64l34.98,26.57Z"/>
  <ellipse class="cls-2" cx="249.99" cy="242.06" rx="138.61" ry="25.29"/>
  <g>
    <path class="cls-3" d="M159.51,211.26c-4.65-1.99-8.33-4.85-11.03-8.58-2.7-3.74-4.09-8.15-4.17-13.23h17.88c.24,3.42,1.45,6.12,3.64,8.11,2.18,1.99,5.19,2.98,9,2.98s6.95-.93,9.18-2.8c2.22-1.87,3.34-4.31,3.34-7.33,0-2.46-.76-4.49-2.27-6.08-1.51-1.59-3.4-2.84-5.66-3.75s-5.39-1.93-9.36-3.04c-5.41-1.59-9.8-3.16-13.17-4.71-3.38-1.55-6.28-3.89-8.7-7.03-2.43-3.14-3.64-7.33-3.64-12.58,0-4.93,1.23-9.22,3.7-12.88,2.46-3.65,5.92-6.46,10.37-8.4s9.54-2.92,15.26-2.92c8.58,0,15.56,2.09,20.92,6.26s8.33,10,8.88,17.47h-18.36c-.16-2.86-1.37-5.23-3.64-7.09s-5.27-2.8-9-2.8c-3.26,0-5.86.83-7.81,2.5-1.95,1.67-2.92,4.09-2.92,7.27,0,2.22.73,4.07,2.21,5.54,1.47,1.47,3.3,2.66,5.48,3.58,2.18.92,5.26,1.97,9.24,3.16,5.4,1.59,9.82,3.18,13.23,4.77,3.42,1.59,6.36,3.98,8.82,7.15s3.7,7.35,3.7,12.52c0,4.45-1.15,8.58-3.46,12.4s-5.68,6.86-10.13,9.12-9.74,3.4-15.86,3.4c-5.8,0-11.03-.99-15.68-2.98Z"/>
    <path class="cls-3" d="M244.64,149.32c3.78-2.03,8.09-3.04,12.94-3.04,5.64,0,10.75,1.39,15.32,4.17,4.57,2.78,8.19,6.74,10.85,11.86s3.99,11.07,3.99,17.82-1.33,12.74-3.99,17.94c-2.66,5.21-6.28,9.24-10.85,12.1s-9.68,4.29-15.32,4.29c-4.85,0-9.12-.99-12.82-2.98-3.7-1.99-6.7-4.49-9-7.51v40.9h-16.69v-97.53h16.69v9.54c2.15-3.02,5.11-5.54,8.88-7.57ZM268.25,169.83c-1.63-2.9-3.78-5.11-6.44-6.62-2.66-1.51-5.54-2.27-8.64-2.27s-5.86.77-8.53,2.32-4.81,3.8-6.44,6.74c-1.63,2.94-2.44,6.4-2.44,10.37s.81,7.43,2.44,10.37c1.63,2.94,3.78,5.19,6.44,6.74s5.5,2.32,8.53,2.32,5.98-.79,8.64-2.38,4.81-3.86,6.44-6.8c1.63-2.94,2.44-6.44,2.44-10.49s-.82-7.41-2.44-10.31Z"/>
    <path class="cls-3" d="M312.06,210.25c-5.09-2.82-9.08-6.81-11.98-11.98-2.9-5.16-4.35-11.13-4.35-17.88s1.49-12.72,4.47-17.88c2.98-5.17,7.05-9.16,12.22-11.98,5.17-2.82,10.93-4.23,17.29-4.23s12.12,1.41,17.29,4.23c5.17,2.82,9.24,6.82,12.22,11.98,2.98,5.17,4.47,11.13,4.47,17.88s-1.53,12.72-4.59,17.88c-3.06,5.17-7.19,9.16-12.4,11.98-5.21,2.82-11.03,4.23-17.47,4.23s-12.08-1.41-17.17-4.23ZM337.76,197.73c2.66-1.47,4.79-3.68,6.38-6.62,1.59-2.94,2.39-6.52,2.39-10.73,0-6.28-1.65-11.11-4.95-14.49-3.3-3.38-7.33-5.07-12.1-5.07s-8.76,1.69-11.98,5.07c-3.22,3.38-4.83,8.21-4.83,14.49s1.57,11.11,4.71,14.49c3.14,3.38,7.09,5.07,11.86,5.07,3.02,0,5.86-.73,8.53-2.21Z"/>
    <path class="cls-3" d="M395.4,161.07v31.95c0,2.22.54,3.84,1.61,4.83,1.07.99,2.88,1.49,5.42,1.49h7.75v14.07h-10.49c-14.07,0-21.1-6.84-21.1-20.51v-31.83h-7.87v-13.71h7.87v-16.33h16.81v16.33h14.79v13.71h-14.79Z"/>
    <path class="cls-3" d="M438.92,125.18v88.23h-16.69v-88.23h16.69Z"/>
    <path class="cls-3" d="M472.06,147.36v66.05h-16.69v-66.05h16.69Z"/>
    <path class="cls-3" d="M527.39,149.2c3.74,1.95,6.68,4.47,8.82,7.57v-9.42h16.81v66.53c0,6.12-1.23,11.58-3.7,16.39s-6.16,8.62-11.09,11.45-10.89,4.23-17.88,4.23c-9.38,0-17.07-2.19-23.07-6.56-6-4.37-9.4-10.33-10.19-17.88h16.57c.87,3.02,2.76,5.42,5.66,7.21,2.9,1.79,6.42,2.68,10.55,2.68,4.85,0,8.78-1.45,11.8-4.35,3.02-2.9,4.53-7.29,4.53-13.17v-10.26c-2.15,3.1-5.11,5.68-8.88,7.75-3.78,2.06-8.09,3.1-12.94,3.1-5.56,0-10.65-1.43-15.26-4.29-4.61-2.86-8.25-6.89-10.91-12.1-2.66-5.2-3.99-11.19-3.99-17.94s1.33-12.6,3.99-17.77c2.66-5.16,6.28-9.14,10.85-11.92,4.57-2.78,9.68-4.17,15.32-4.17,4.93,0,9.26.97,13,2.92ZM533.82,169.95c-1.59-2.9-3.74-5.13-6.44-6.68-2.7-1.55-5.6-2.32-8.7-2.32s-5.96.76-8.58,2.27c-2.62,1.51-4.75,3.72-6.38,6.62-1.63,2.9-2.44,6.34-2.44,10.31s.81,7.45,2.44,10.43c1.63,2.98,3.77,5.27,6.44,6.86,2.66,1.59,5.5,2.38,8.53,2.38s6-.77,8.7-2.32c2.7-1.55,4.85-3.78,6.44-6.68s2.39-6.38,2.39-10.43-.8-7.53-2.39-10.43Z"/>
    <path class="cls-3" d="M619.91,149.68c3.89,2.19,6.93,5.41,9.12,9.66,2.18,4.25,3.28,9.36,3.28,15.32v38.75h-16.69v-36.48c0-5.25-1.31-9.28-3.93-12.1-2.62-2.82-6.2-4.23-10.73-4.23s-8.25,1.41-10.91,4.23c-2.66,2.82-3.99,6.86-3.99,12.1v36.48h-16.69v-88.23h16.69v30.4c2.15-2.86,5.01-5.11,8.58-6.74,3.58-1.63,7.55-2.44,11.92-2.44,5.01,0,9.46,1.09,13.35,3.28Z"/>
    <path class="cls-3" d="M667.6,161.07v31.95c0,2.22.54,3.84,1.61,4.83,1.07.99,2.88,1.49,5.42,1.49h7.75v14.07h-10.49c-14.07,0-21.1-6.84-21.1-20.51v-31.83h-7.87v-13.71h7.87v-16.33h16.81v16.33h14.79v13.71h-14.79Z"/>
  </g>
  <path class="cls-2" d="M453.62,46.51l-2.94,14.94c-.05.26-.29.42-.55.38-.07-.01-.14-.04-.2-.09l-31.38-23.42c-.38-.29-.37-.56.04-.82,6.72-4.3,16.28-8.76,21.35-14.75,4.59-5.4,9.18-10.77,13.77-16.11.25-.3.53-.33.86-.1l14.03,10.45c.34.26.39.56.16.92l-9.78,15.12c-.22.35-.18.65.14.92,2.23,1.81,2.96,4.15,2.19,7.04-.12.47,0,.87.35,1.2l27.21,25.73c.26.24.55.33.89.27,11.35-2,11.71,12.39,2.41,12.6-.43,0-.75.2-.95.59l-20.95,40.74c-.21.41-.19.81.05,1.19,2.69,4.4.17,10.87-5.13,10.74-8.95-.22-8.71-12.89-.04-13.16.42,0,.72-.2.92-.57l21.15-41.05c.18-.37.15-.71-.11-1.02-1.43-1.75-1.76-3.7-.98-5.86.14-.39.06-.72-.24-1l-27.04-25.71c-.38-.36-.83-.51-1.35-.43l-2.94.41c-.51.07-.82.36-.93.87h0Z"/>
</svg>